<svg width="1838" height="1841" xmlns="http://www.w3.org/2000/svg" xmlns:xlink="http://www.w3.org/1999/xlink" xml:space="preserve" overflow="hidden"><g transform="translate(-1283 -404)"><path d="M1754.49 1574 2012 1574 1883.26 1354.74 1883.26 1354.74 1862.62 1319.89 1713.27 1066.23 1692.63 1030.9 1580.85 841 1367.79 1211.17C1333.42 1270.79 1333.42 1368.96 1367.79 1428.59L1451.64 1573.52 1713.71 1573.52 1754.49 1573.52Z" fill="#78B0E1" fill-rule="evenodd"/><text fill="#FFFFFF" font-family="Frutiger,Frutiger_MSFontService,sans-serif" font-weight="400" font-size="64" transform="matrix(1 0 0 1 1490.19 1302)">Healthy</text><text fill="#FFFFFF" font-family="Frutiger,Frutiger_MSFontService,sans-serif" font-weight="400" font-size="64" transform="matrix(1 0 0 1 1431.75 1384)">populations</text><path d="M2200.12 820.9 2076 1032 2324.66 1032 2365.43 1032 2664.03 1032 2704.8 1032 2926 1032 2708.94 656.519C2674.58 597.005 2589.86 548 2520.68 548L2360.4 548 2220.26 786.572 2200.12 820.9Z" fill="#211F83" fill-rule="evenodd"/><text fill="#FFFFFF" font-family="Frutiger,Frutiger_MSFontService,sans-serif" font-weight="400" font-size="64" transform="matrix(1 0 0 1 2387.11 844)">Well led</text><path d="M1908 1322 2056.69 1070 2343.31 1070 2492 1322 2343.31 1574 2056.69 1574Z" fill="#4A68CA" fill-rule="evenodd"/><text fill="#FFFFFF" font-family="Frutiger,Frutiger_MSFontService,sans-serif" font-weight="400" font-size="64" transform="matrix(1 0 0 1 2070.06 1303)">Empower</text><text fill="#FFFFFF" font-family="Frutiger,Frutiger_MSFontService,sans-serif" font-weight="400" font-size="64" transform="matrix(1 0 0 1 2108.45 1385)">people</text><path d="M2644.71 1066 2387 1066 2515.87 1284.96 2536.48 1319.76 2685.99 1573.08 2706.63 1608.36 2818.51 1798 3032.2 1428.34C3066.59 1368.8 3066.59 1270.76 3032.2 1211.21L2948.29 1066.47 2685.99 1066.47 2644.71 1066.47Z" fill="#211F83" fill-rule="evenodd"/><text fill="#FFFFFF" font-family="Frutiger,Frutiger_MSFontService,sans-serif" font-weight="400" font-size="64" transform="matrix(1 0 0 1 2621.16 1302)">Ensure smart</text><text fill="#FFFFFF" font-family="Frutiger,Frutiger_MSFontService,sans-serif" font-weight="400" font-size="64" transform="matrix(1 0 0 1 2632.62 1384)">foundations</text><path d="M1755.76 1067.87 1884.65 1287 2013.58 1067.87 2034.2 1032.56 2179.16 786.396 2199.34 751.533 2320 548 1878.71 548C1809.44 548 1724.56 597.061 1690.17 656.66L1603 807.471 1735.58 1032.56 1755.76 1067.87Z" fill="#78B0E1" fill-rule="evenodd"/><text fill="#FFFFFF" font-family="Frutiger,Frutiger_MSFontService,sans-serif" font-weight="400" font-size="64" transform="matrix(1 0 0 1 1772.11 802)">Improve</text><text fill="#FFFFFF" font-family="Frutiger,Frutiger_MSFontService,sans-serif" font-weight="400" font-size="64" transform="matrix(1 0 0 1 1829.97 884)">care</text><path d="M2196.88 1822.54 2321 1611 2072.34 1611 2032 1611 1733.44 1611 1692.67 1611 1471 1611 1688.06 1987.26C1722.42 2046.89 1807.14 2096 1876.32 2096L2036.6 2096 2176.74 1856.94 2196.88 1822.54Z" fill="#4A68CA" fill-rule="evenodd"/><text fill="#FFFFFF" font-family="Frutiger,Frutiger_MSFontService,sans-serif" font-weight="400" font-size="64" transform="matrix(1 0 0 1 1782.65 1807)">Support</text><text fill="#FFFFFF" font-family="Frutiger,Frutiger_MSFontService,sans-serif" font-weight="400" font-size="64" transform="matrix(1 0 0 1 1750.87 1889)">workforce</text><path d="M2643.45 1573.13 2514.74 1354 2385.99 1573.13 2365.41 1608.44 2220.65 1854.6 2200.03 1888.99 2080 2093 2520.67 2093C2589.85 2093 2674.61 2043.94 2708.95 1984.34L2796 1833.53 2663.61 1608.44 2643.45 1573.13Z" fill="#211F83" fill-rule="evenodd"/><text fill="#FFFFFF" font-family="Frutiger,Frutiger_MSFontService,sans-serif" font-weight="400" font-size="64" transform="matrix(1 0 0 1 2444.37 1807)">Safe</text><text fill="#FFFFFF" font-family="Frutiger,Frutiger_MSFontService,sans-serif" font-weight="400" font-size="64" transform="matrix(1 0 0 1 2394.25 1889)">practice</text><text fill="#211F83" font-family="Frutiger,Frutiger_MSFontService,sans-serif" font-weight="700" font-size="64" transform="matrix(0.5 -0.866025 0.866025 0.5 2889.04 1873)">Support</text><text fill="#211F83" font-family="Frutiger,Frutiger_MSFontService,sans-serif" font-weight="700" font-size="64" transform="matrix(1 0 0 1 2009.11 2191)">Enablement</text><text fill="#211F83" font-family="Frutiger,Frutiger_MSFontService,sans-serif" font-weight="700" font-size="64" transform="matrix(0.5 0.866025 -0.866025 0.5 2907.81 822)">Strategy</text><text fill="#211F83" font-family="Frutiger,Frutiger_MSFontService,sans-serif" font-weight="700" font-size="64" transform="matrix(1 0 0 1 2020.34 486)">Improvement</text><text fill="#211F83" font-family="Frutiger,Frutiger_MSFontService,sans-serif" font-weight="700" font-size="64" transform="matrix(0.5 0.866025 -0.866025 0.5 1360.77 1646)">Delivery</text><text fill="#211F83" font-family="Frutiger,Frutiger_MSFontService,sans-serif" font-weight="700" font-size="64" transform="matrix(0.5 -0.866025 0.866025 0.5 1372.76 1057)">Sustainability</text></g></svg>